<svg width="29" height="29" viewBox="0 0 29 29" fill="none" xmlns="http://www.w3.org/2000/svg">
<path d="M14.4342 27.823C21.6358 27.823 27.4739 21.8581 27.4739 14.4999C27.4739 7.14173 21.6358 1.17676 14.4342 1.17676C7.23259 1.17676 1.39453 7.14173 1.39453 14.4999C1.39453 21.8581 7.23259 27.823 14.4342 27.823Z" stroke="white" stroke-width="2" stroke-miterlimit="10"/>
<path d="M14.4336 4.82837C14.4336 7.35316 14.4336 14.5003 14.4336 14.5003H21.2766" stroke="white" stroke-width="2" stroke-miterlimit="10"/>
<path d="M13.1406 6.38192L14.4332 5.06126L15.7257 6.38192V5.25548L14.4332 3.93481L13.1406 5.25548V6.38192Z" fill="white"/>
<path d="M19.7559 15.8208L21.0484 14.5001L19.7559 13.1794H20.8583L22.1509 14.5001L20.8583 15.8208H19.7559Z" fill="white"/>
</svg>
